<!DOCTYPE svg PUBLIC "-//W3C//DTD SVG 1.1//EN" "http://www.w3.org/Graphics/SVG/1.1/DTD/svg11.dtd">
<!-- Uploaded to: SVG Repo, www.svgrepo.com, Transformed by: SVG Repo Mixer Tools -->
<svg width="64px" height="64px" viewBox="0 0 36 36" xmlns="http://www.w3.org/2000/svg" xmlns:xlink="http://www.w3.org/1999/xlink" aria-hidden="true" role="img" class="iconify iconify--twemoji" preserveAspectRatio="xMidYMid meet" fill="#000000" data-darkreader-inline-fill="" style="--darkreader-inline-fill: var(--darkreader-background-000000, #060606);">
<g id="SVGRepo_bgCarrier" stroke-width="0"/>
<g id="SVGRepo_tracerCarrier" stroke-linecap="round" stroke-linejoin="round"/>
<g id="SVGRepo_iconCarrier">
<path fill="#880082" d="M0 27a4 4 0 0 0 4 4h28a4 4 0 0 0 4-4v-.5H0v.5z" data-darkreader-inline-fill="" style="--darkreader-inline-fill: var(--darkreader-background-880082, #6e0669);"/>
<path fill="#3558A0" d="M0 22.07h36v4.6H0z" data-darkreader-inline-fill="" style="--darkreader-inline-fill: var(--darkreader-background-3558a0, #2e4980);"/>
<path fill="#138F3E" d="M0 17.83h36v4.5H0z" data-darkreader-inline-fill="" style="--darkreader-inline-fill: var(--darkreader-background-138f3e, #157336);"/>
<path fill="#FAD220" d="M0 13.5h36V18H0z" data-darkreader-inline-fill="" style="--darkreader-inline-fill: var(--darkreader-background-fad220, #897209);"/>
<path fill="#FF5000" d="M0 9.17h36v4.5H0z" data-darkreader-inline-fill="" style="--darkreader-inline-fill: var(--darkreader-background-ff5000, #c84306);"/>
<path fill="#FF000E" d="M32 5H4a4 4 0 0 0-4 4v.33h36V9a4 4 0 0 0-4-4z" data-darkreader-inline-fill="" style="--darkreader-inline-fill: var(--darkreader-background-ff000e, #c80611);"/>
</g>
</svg>